<?xml version="1.0" standalone="no"?>
<!DOCTYPE svg PUBLIC "-//W3C//DTD SVG 20010904//EN"
 "http://www.w3.org/TR/2001/REC-SVG-20010904/DTD/svg10.dtd">
<svg xmlns="http://www.w3.org/2000/svg" viewBox="0 0 512 512" fill="#004e96">
  <g transform="translate(0,512) scale(0.1,-0.1)">
<path d="M1575 4469 c-393 -40 -752 -170 -1035 -372 -109 -78 -281 -251 -344
-346 -279 -419 -258 -892 55 -1286 l60 -76 -27 -82 c-62 -187 -140 -351 -233
-491 -40 -61 -46 -76 -46 -122 0 -57 18 -90 69 -128 36 -27 104 -25 266 8 245
49 527 163 710 284 l74 49 65 -18 c36 -11 67 -19 68 -19 1 0 -3 15 -8 33 -40
135 -50 395 -23 558 54 325 235 631 513 870 333 286 754 463 1241 524 69 8
154 15 190 16 36 0 85 4 110 7 l44 7 -64 63 c-269 264 -656 442 -1105 508
-124 18 -459 26 -580 13z"/>
<path d="M3140 3570 c-675 -49 -1250 -366 -1504 -831 -177 -322 -168 -720 23
-1037 383 -637 1342 -948 2239 -726 l103 25 77 -49 c243 -155 554 -270 826
-304 86 -11 93 -10 133 11 48 24 83 80 83 131 0 36 -13 63 -76 161 -64 98
-145 273 -194 413 -37 109 -39 121 -25 140 8 12 40 53 70 91 74 93 159 266
192 390 23 88 26 119 26 255 0 136 -3 167 -26 255 -32 119 -115 291 -189 390
-74 99 -218 238 -329 318 -187 134 -467 256 -718 313 -215 48 -493 70 -711 54z
m-360 -1219 c50 -26 82 -84 77 -142 -5 -57 -30 -93 -85 -120 -164 -81 -296
162 -138 256 49 30 99 32 146 6z m618 -8 c62 -45 81 -143 39 -204 -30 -44
-100 -74 -153 -65 -77 15 -139 116 -114 190 10 32 46 73 85 95 28 16 112 7
143 -16z m592 4 c104 -69 95 -209 -16 -262 -68 -32 -155 -1 -190 67 -24 45
-15 130 17 164 51 56 133 70 189 31z"/>
</g>
</svg>
