<?xml version="1.0" standalone="no"?>
<!DOCTYPE svg PUBLIC "-//W3C//DTD SVG 20010904//EN"
 "http://www.w3.org/TR/2001/REC-SVG-20010904/DTD/svg10.dtd">
<svg version="1.0" xmlns="http://www.w3.org/2000/svg"
 width="512.000000pt" height="512.000000pt" viewBox="0 0 512.000000 512.000000"
 preserveAspectRatio="xMidYMid meet">

<g transform="translate(0.000000,512.000000) scale(0.100000,-0.100000)"
fill="#004e96" stroke="none"> <!-- fill="#000000" → fill="currentColor" -->
<path d="M2480 4828 c-18 -13 -43 -36 -54 -51 -21 -28 -21 -38 -26 -708 l-5
-680 -45 47 c-233 241 -627 381 -970 344 -379 -40 -700 -232 -905 -539 -131
-197 -205 -430 -205 -646 0 -90 16 -127 73 -169 28 -21 38 -21 708 -26 l680
-5 -47 -45 c-152 -147 -277 -381 -325 -610 -25 -121 -30 -321 -11 -436 77
-462 395 -833 837 -977 106 -35 238 -57 340 -57 90 0 127 16 169 73 21 -28 21
38 26 708 l5 680 45 -47 c147 -152 381 -277 610 -325 124 -26 320 -30 445 -10
448 73 832 405 969 839 35 112 56 237 56 337 0 90 -16 127 -73 169 -28 21 -38
21 -708 26 l-680 5 47 45 c241 232 381 627 344 970 -40 379 -232 700 -539 905
-197 131 -430 205 -646 205 -69 0 -87 -4 -115 -22z m381 -348 c389 -136 645
-538 600 -944 -35 -315 -218 -580 -496 -719 -72 -36 -193 -77 -226 -77 -19 0
-19 23 -19 890 l0 890 33 -7 c17 -3 66 -18 108 -33z m-1151 -1041 c252 -60
472 -235 590 -469 38 -76 80 -197 80 -231 0 -19 -23 -19 -890 -19 l-890 0 6
28 c39 178 128 336 260 463 86 81 143 120 248 170 187 87 391 107 596 58z
m2804 -1066 c-67 -281 -239 -501 -493 -628 -210 -105 -484 -118 -709 -35 -214
80 -390 238 -492 440 -38 76 -80 197 -80 231 0 19 23 19 890 19 l890 0 -6 -27z
m-2114 -883 l0 -890 -27 6 c-167 40 -310 115 -425 223 -95 89 -153 168 -207
282 -159 332 -96 727 157 1001 68 73 157 140 247 186 76 38 197 81 233 82 l22
0 0 -890z"/>
</g>
</svg>
